<svg display="none" width="0" height="0" version="1.1" xmlns="http://www.w3.org/2000/svg" xmlns:xlink="http://www.w3.org/1999/xlink">
<defs>
<symbol id="icon-convertible" viewBox="0 0 2829 1024">
	<path class="path1" d="M2294.099 458.254v0c-155.58 0-282.873 127.293-282.873 282.873s127.293 282.873 282.873 282.873c155.58 0 282.873-127.293 282.873-282.873s-127.293-282.873-282.873-282.873zM1654.807 141.436v0c0-93.348-144.265-93.348-147.094 0v115.978l-421.481 2.829c-22.63 0-39.602-25.459-22.63-48.088 36.773-45.26 118.807-115.978 130.122-127.293 14.144-11.315 33.945-25.459 48.088-36.773 28.287-19.801 5.657-59.403-28.287-50.917-8.486 2.829-14.144 5.657-22.63 8.486-90.519 36.773-164.066 96.177-254.586 152.751-42.431 28.287-76.376 53.746-104.663 70.718-53.746 33.945-110.32 36.773-169.724 42.431l-302.674 33.945c-110.32 11.315-203.669 42.431-271.558 115.978-45.26 48.088-87.691 121.635-87.691 209.326v19.801c0 101.834 87.691 181.039 181.039 178.21h87.691c-5.657-31.116-11.315-59.403-11.315-90.519 0-178.21 144.265-325.304 325.304-325.304 178.21 0 325.304 144.265 325.304 325.304 0 31.116-2.829 62.232-11.315 90.519h1080.575c-5.657-28.287-11.315-56.575-11.315-87.691 0-178.21 147.094-325.304 325.304-325.304s325.304 144.265 325.304 325.304c0 28.287-2.829 53.746-8.486 79.204 113.149-22.63 217.812-90.519 217.812-223.47v-73.547c0-99.006-42.431-183.867-115.978-240.442-45.26-33.945-110.32-62.232-172.552-62.232-5.657 0-82.033 0-101.834 0-11.315 0-22.63-5.657-33.945-11.315-62.232-36.773-110.32-50.917-186.696-50.917-33.945 0-73.547 0-141.436 0-73.547 0-130.122 19.801-181.039 48.088-14.144 5.657-25.459 14.144-36.773 22.63-31.116 22.63-65.061 31.116-101.834 31.116h-99.006v-118.807zM2294.099 611.006c70.718 0 130.122 56.575 130.122 130.122 0 70.718-56.575 130.122-130.122 130.122-70.718 0-130.122-56.575-130.122-130.122 0-70.718 56.575-130.122 130.122-130.122v0zM582.718 611.006v0c-70.718 0-130.122 59.403-130.122 130.122s59.403 130.122 130.122 130.122c73.547 0 130.122-56.575 130.122-130.122s-59.403-130.122-130.122-130.122zM582.718 458.254c155.58 0 282.873 127.293 282.873 282.873s-127.293 282.873-282.873 282.873c-155.58 0-282.873-127.293-282.873-282.873s127.293-282.873 282.873-282.873v0z"></path>
</symbol>
<symbol id="icon-coupe" viewBox="0 0 2716 1024">
	<path class="path1" d="M559.533 483.48v0c-149.39 0-268.902 119.512-271.618 271.618 0 149.39 122.228 271.618 271.618 271.618s271.618-122.228 271.618-271.618c0-149.39-122.228-271.618-271.618-271.618zM1102.769 377.549h833.867c46.175 0 81.485-48.891 54.324-97.782-32.594-59.756-149.39-100.499-206.43-116.796-152.106-51.607-507.926-62.472-717.072 95.066-54.324 40.743-24.446 119.512 35.31 119.512v0zM1901.326 839.3h-1037.581c8.149-27.162 10.865-57.040 10.865-86.918 0-173.836-141.241-312.361-312.361-312.361-173.836 0-312.361 141.241-312.361 312.361 0 29.878 5.432 57.040 10.865 86.918h-86.918c-92.35 0-173.836-76.053-173.836-173.836v-19.013c0-135.809 67.905-225.443 165.687-282.483 57.040-32.594 127.66-59.756 200.997-62.472l344.955-16.297c54.324-2.716 97.782-13.581 143.958-43.459 27.162-16.297 57.040-40.743 97.782-65.188 222.727-143.958 483.48-190.133 746.95-176.552 209.146 13.581 445.454 73.337 681.761 249.889 0 0 149.39 0 157.538 0 111.363 0 173.836 95.066 173.836 173.836v187.416c0 127.66-100.499 192.849-209.146 214.578 5.432-24.446 8.149-48.891 8.149-76.053 0-173.836-141.241-312.361-312.361-312.361-173.836 0-312.361 141.241-312.361 312.361 0 32.594 5.432 62.472 13.581 89.634v0zM2202.822 627.438v0c-70.621 0-124.944 57.040-124.944 124.944s57.040 124.944 124.944 124.944c70.621 0 124.944-57.040 124.944-124.944 0-70.621-57.040-124.944-124.944-124.944zM559.533 627.438c67.905 0 124.944 54.324 124.944 124.944 0 67.905-54.324 124.944-124.944 124.944-67.905 0-124.944-54.324-124.944-124.944 2.716-67.905 57.040-124.944 124.944-124.944v0zM2202.822 483.48c149.39 0 271.618 122.228 271.618 271.618s-122.228 271.618-271.618 271.618c-149.39 0-271.618-122.228-271.618-271.618 0-152.106 122.228-271.618 271.618-271.618v0z"></path>
</symbol>
<symbol id="icon-hatchback" viewBox="0 0 1502 1024">
	<path class="path1" d="M920.682 851.803h-277.812c4.592-18.368 6.888-36.735 6.888-57.399 0-146.942-119.39-264.036-264.036-264.036-146.942 0-264.036 119.39-264.036 264.036 0 18.368 2.296 39.031 6.888 55.103-71.175-6.888-126.278-66.583-126.278-137.758v-68.879c0-52.807 18.368-107.91 50.511-158.422 149.238-236.484 415.57-436.233 684.197-470.673 114.798-13.776 259.444-22.96 388.018 0 160.717 29.848 280.108 149.238 332.915 291.587 43.623 119.39 45.919 243.372 43.623 376.538 0 50.511-18.368 107.91-59.695 140.054 2.296-11.48 2.296-20.664 2.296-32.143 0-146.942-119.39-264.036-264.036-264.036-146.942 0-264.036 119.39-264.036 264.036-4.592 20.664 0 41.327 4.592 61.991v0zM385.722 564.807v0c-126.278 0-229.596 103.318-229.596 229.596s103.318 229.596 229.596 229.596c126.278 0 229.596-103.318 229.596-229.596s-103.318-229.596-229.596-229.596zM1177.83 684.197v0c-57.399 0-105.614 45.919-105.614 105.614s48.215 105.614 105.614 105.614c59.695 0 105.614-48.215 105.614-105.614s-48.215-105.614-105.614-105.614zM385.722 688.789c57.399 0 105.614 45.919 105.614 105.614 0 57.399-45.919 105.614-105.614 105.614-57.399 0-105.614-45.919-105.614-105.614 0-57.399 45.919-105.614 105.614-105.614v0zM1177.83 560.215c126.278 0 229.596 103.318 229.596 229.596s-103.318 229.596-229.596 229.596c-126.278 0-229.596-103.318-229.596-229.596s103.318-229.596 229.596-229.596v0zM376.538 323.731c-6.888 11.48-11.48 22.96-11.48 32.143-4.592 36.735 20.664 71.175 55.103 71.175 227.3 0 454.601 0 684.197 0 36.735 0 64.287-29.848 61.991-71.175-6.888-192.861-174.493-252.556-314.547-250.26-179.085 6.888-376.538 82.655-475.265 218.117v0z"></path>
</symbol>
<symbol id="icon-minivan" viewBox="0 0 2303 1024">
	<path class="path1" d="M1867.57 557.693v0c-128.879 0-231.982 105.446-234.325 234.325 0 128.879 105.446 234.325 234.325 234.325s234.325-105.446 234.325-234.325c0-128.879-105.446-234.325-234.325-234.325zM1755.094 112.476v0c63.268 0-16.403 0 77.327-2.343 25.776 0 91.387 7.030 126.535 53.895l30.462 39.835c14.059 18.746 16.403 51.551-4.686 67.954l-79.67 56.238c-44.522 32.805-79.67 46.865-135.908 46.865h-16.403c-14.059 0-30.462-7.030-39.835-18.746-9.373-9.373-14.059-21.089-14.059-35.149v-154.654c0-28.119 25.776-53.895 56.238-53.895zM1607.469 862.316v0c-7.030-21.089-9.373-46.865-9.373-70.297 0-147.625 119.506-269.474 269.474-269.474 147.625 0 269.474 119.506 269.474 269.474 0 23.432-2.343 44.522-7.030 65.611 93.73-16.403 173.4-70.297 173.4-187.46 0-18.746 0-140.595 0-180.43 0-60.924-7.030-119.506-72.641-196.833l-152.311-178.087c-53.895-60.924-124.192-105.446-206.206-110.133-145.281-9.373-724.064-7.030-822.481 4.686-194.49 21.089-384.293 154.654-513.172 290.563-44.522 49.208-93.73 53.895-161.684 60.924l-124.192 11.716c-86.7 9.373-164.027 53.895-210.892 126.535-25.776 44.522-39.835 91.387-39.835 142.938v79.67c0 77.327 63.268 140.595 140.595 140.595h58.581c-4.686-23.432-9.373-46.865-9.373-72.641 0-147.625 119.506-269.474 269.474-269.474 147.625 0 269.474 119.506 269.474 269.474 0 23.432-2.343 49.208-9.373 72.641h888.092zM1106.014 112.476c30.462 0 56.238 25.776 56.238 53.895v154.654c0 14.059-4.686 25.776-14.059 35.149-9.373 11.716-25.776 18.746-39.835 18.746h-346.801c-35.149 0-60.924-30.462-56.238-63.268 2.343-9.373 4.686-21.089 11.716-30.462 51.551-63.268 98.416-96.073 175.744-128.879 63.268-21.089 145.281-39.835 213.236-39.835v0zM1333.309 112.476h196.833c30.462 0 56.238 25.776 56.238 56.238v149.968c0 30.462-25.776 56.238-56.238 56.238h-196.833c-30.462 0-56.238-25.776-56.238-56.238v-147.625c-2.343-32.805 23.432-58.581 56.238-58.581v0zM1867.57 684.229c58.581 0 107.789 46.865 107.789 107.789 0 58.581-46.865 107.789-107.789 107.789-58.581 0-107.789-46.865-107.789-107.789 2.343-60.924 49.208-107.789 107.789-107.789v0zM459.277 681.886v0c-58.581 0-107.789 46.865-107.789 107.789s49.208 107.789 107.789 107.789c60.924 0 107.789-46.865 107.789-107.789s-49.208-107.789-107.789-107.789zM459.277 555.35c128.879 0 234.325 105.446 234.325 234.325s-105.446 234.325-234.325 234.325c-128.879 0-234.325-105.446-234.325-234.325 2.343-128.879 105.446-234.325 234.325-234.325v0z"></path>
</symbol>
<symbol id="icon-sedan" viewBox="0 0 2090 1024">
	<path class="path1" d="M1309.876 112.476v0c91.387 0 166.371 21.089 224.952 58.581 42.178 30.462 126.535 103.103 133.565 156.998 4.686 32.805-21.089 63.268-56.238 63.268h-304.622c-14.059 0-30.462-7.030-39.835-18.746-9.373-9.373-14.059-21.089-14.059-35.149v-171.057c0-28.119 25.776-53.895 56.238-53.895zM438.188 555.35v0c-128.879 0-231.982 105.446-234.325 234.325 0 128.879 105.446 234.325 234.325 234.325s234.325-105.446 234.325-234.325c0-128.879-105.446-234.325-234.325-234.325zM1640.275 681.886v0c-60.924 0-107.789 49.208-107.789 107.789 0 60.924 49.208 107.789 107.789 107.789 60.924 0 107.789-49.208 107.789-107.789 0-60.924-49.208-107.789-107.789-107.789zM438.188 681.886c58.581 0 107.789 46.865 107.789 107.789 0 58.581-46.865 107.789-107.789 107.789-58.581 0-107.789-46.865-107.789-107.789 0-58.581 49.208-107.789 107.789-107.789v0zM1640.275 555.35c128.879 0 234.325 105.446 234.325 234.325s-105.446 234.325-234.325 234.325c-128.879 0-234.325-105.446-234.325-234.325s103.103-234.325 234.325-234.325v0zM1377.831 864.659v0c-4.686-23.432-9.373-49.208-7.030-72.641 0-147.625 119.506-269.474 269.474-269.474 147.625 0 269.474 119.506 269.474 269.474 0 23.432-2.343 46.865-9.373 70.297 98.416-14.059 189.803-67.954 189.803-192.146 0-18.746 0-140.595 0-180.43 0-44.522-25.776-84.357-67.954-100.76-28.119-11.716-65.611-25.776-117.162-58.581-53.895-32.805-70.297-79.67-112.476-131.222-86.7-107.789-222.609-182.773-363.204-194.49-126.535-9.373-304.622-7.030-407.725 4.686-194.49 23.432-358.517 152.311-487.396 290.563-44.522 49.208-93.73 79.67-161.684 91.387-32.805 4.686-79.67 11.716-121.849 14.059-86.7 7.030-164.027 53.895-210.892 126.535-28.119 44.522-39.835 91.387-39.835 142.938v49.208c0 77.327 63.268 140.595 140.595 140.595h37.492c-4.686-23.432-9.373-46.865-9.373-72.641 0-147.625 119.506-269.474 269.474-269.474 147.625 0 269.474 119.506 269.474 269.474 0 23.432-2.343 49.208-9.373 72.641h679.542zM1084.924 112.476c30.462 0 56.238 25.776 56.238 53.895v171.057c0 14.059-4.686 25.776-14.059 35.149-9.373 11.716-25.776 18.746-39.835 18.746h-356.174c-35.149 0-60.924-30.462-56.238-63.268 2.343-9.373 4.686-21.089 11.716-30.462 51.551-63.268 105.446-112.476 182.773-142.938 65.611-23.432 145.281-42.178 215.579-42.178v0z"></path>
</symbol>
<symbol id="icon-suv" viewBox="0 0 2145 1024">
	<path class="path1" d="M1690.189 555.549v0c-129.471 0-233.048 105.931-235.402 235.402 0 129.471 105.931 235.402 235.402 235.402s235.402-105.931 235.402-235.402c0-129.471-105.931-235.402-235.402-235.402zM1579.549 112.993v0c51.789 0 105.931 0 160.074 2.354 47.080 0 82.391 28.248 101.223 68.267l14.124 28.248c9.416 16.478 7.062 32.956 0 49.434-4.708 11.77-16.478 23.54-32.956 28.248l-200.092 56.497c-14.124 2.354-30.602 7.062-44.726 7.062s-30.602-7.062-40.018-18.832c-9.416-9.416-14.124-23.54-14.124-37.664v-129.471c0-28.248 25.894-54.143 56.497-54.143zM1428.892 863.926v0c-7.062-23.54-9.416-47.080-9.416-75.329 0-148.303 120.055-270.713 270.713-270.713 148.303 0 270.713 120.055 270.713 270.713 0 23.54-4.708 47.080-9.416 68.267 98.869-14.124 190.676-65.913 190.676-190.676 0-18.832 0-129.471 0-169.49 2.354-21.186 0-51.789-35.31-129.471l-108.285-237.756c-32.956-72.975-117.701-129.471-209.508-129.471h-894.529c-91.807 0-178.906 44.726-235.402 117.701l-134.179 171.844c-16.478 21.186-32.956 35.31-56.497 44.726-16.478 7.062-40.018 11.77-58.851 11.77h-157.72c-87.099 0-164.782 54.143-211.862 127.117-25.894 44.726-40.018 91.807-40.018 143.595v105.931c0 77.683 63.559 141.241 141.241 141.241h58.851c-4.708-25.894-9.416-49.434-9.416-75.329 0-148.303 120.055-270.713 270.713-270.713s273.067 120.055 270.713 270.713c0 25.894-2.354 51.789-9.416 75.329h706.207zM1353.563 112.993c30.602 0 56.497 25.894 56.497 54.143v127.117c0 14.124-4.708 25.894-14.124 35.31-9.416 11.77-25.894 18.832-40.018 18.832h-612.046c-28.248 0-47.080-18.832-51.789-37.664-4.708-16.478-2.354-32.956 4.708-44.726 40.018-70.621 96.515-155.366 188.322-155.366 51.789 2.354 421.37 2.354 468.451 2.354v0zM461.389 680.313v0c-58.851 0-105.931 49.434-108.285 108.285 0 61.205 49.434 108.285 108.285 108.285 61.205 0 108.285-49.434 108.285-108.285 0-61.205-49.434-108.285-108.285-108.285zM1690.189 682.667c58.851 0 108.285 47.080 108.285 108.285 0 58.851-49.434 108.285-108.285 108.285s-108.285-47.080-108.285-108.285c2.354-58.851 49.434-108.285 108.285-108.285v0zM461.389 555.549c129.471 0 235.402 105.931 235.402 235.402s-105.931 235.402-235.402 235.402c-129.471 0-235.402-105.931-235.402-235.402 2.354-131.825 105.931-235.402 235.402-235.402v0z"></path>
</symbol>
<symbol id="icon-truck" viewBox="0 0 2364 1024">
	<path class="path1" d="M2115.954 867.002v0c119.506 0 248.384-49.208 248.384-196.833v-194.49c0-56.238-44.522-107.789-107.789-107.789h-735.78v-257.757c0-58.581-44.522-105.446-103.103-107.789-98.416-4.686-164.027-2.343-299.936 2.343-63.268 2.343-114.819 7.030-145.281 9.373-194.49 21.089-309.309 117.162-438.188 255.414-44.522 49.208-93.73 79.67-161.684 91.387-32.805 4.686-79.67 11.716-121.849 14.059-86.7 7.030-164.027 53.895-210.892 126.535-28.119 44.522-39.835 91.387-39.835 142.938v82.014c0 77.327 63.268 140.595 140.595 140.595h37.492c-4.686-25.776-9.373-49.208-9.373-74.984 0-147.625 119.506-269.474 269.474-269.474 147.625 0 269.474 119.506 269.474 269.474 0 23.432-2.343 49.208-9.373 72.641h726.407c-4.686-23.432-9.373-46.865-9.373-72.641 0-147.625 119.506-269.474 269.474-269.474 147.625 0 269.474 119.506 269.474 269.474 0 25.776-2.343 51.551-9.373 74.984h171.057zM438.188 557.693v0c-128.879 0-231.982 105.446-234.325 234.325 0 128.879 105.446 234.325 234.325 234.325s234.325-105.446 234.325-234.325c0-128.879-105.446-234.325-234.325-234.325zM438.188 684.229c58.581 0 107.789 46.865 107.789 107.789 0 58.581-46.865 107.789-107.789 107.789-58.581 0-107.789-46.865-107.789-107.789s49.208-107.789 107.789-107.789v0zM1684.796 557.693v0c-128.879 0-231.982 105.446-234.325 234.325 0 128.879 105.446 234.325 234.325 234.325s234.325-105.446 234.325-234.325c0-128.879-105.446-234.325-234.325-234.325zM1684.796 684.229c58.581 0 107.789 46.865 107.789 107.789 0 58.581-46.865 107.789-107.789 107.789-58.581 0-107.789-46.865-107.789-107.789 2.343-60.924 49.208-107.789 107.789-107.789v0zM1255.982 114.819c32.805 0 56.238 28.119 56.238 58.581v164.027c0 32.805-25.776 56.238-56.238 56.238h-538.947c-35.149 0-60.924-30.462-56.238-63.268 0-9.373 4.686-21.089 11.716-30.462 56.238-70.297 119.506-128.879 203.863-156.998 37.492-11.716 79.67-18.746 119.506-21.089 96.073-2.343 220.265-7.030 260.101-7.030v0z"></path>
</symbol>
<symbol id="icon-van" viewBox="0 0 1650 1024">
	<path class="path1" d="M1263.909 633.905v0c-107.276 0-193.097 87.771-195.048 195.048 0 107.276 87.771 195.048 195.048 195.048s195.048-87.771 195.048-195.048c0-107.276-87.771-195.048-195.048-195.048zM713.874 0h-40.96c-70.217 0-109.227 13.653-157.989 62.415l-354.987 354.987-74.118 54.613c-52.663 40.96-85.821 101.425-85.821 169.691v70.217c0 64.366 52.663 117.029 117.029 117.029h66.316c0-122.88 99.474-224.305 224.305-224.305 122.88 0 224.305 99.474 224.305 224.305 136.533 0 273.067 0 409.6 0 0-122.88 99.474-224.305 224.305-224.305 122.88 0 224.305 99.474 224.305 224.305h48.762c60.465 0 111.177-50.712 111.177-111.177v-606.598c0-60.465-50.712-111.177-111.177-111.177h-692.419zM832.853 210.651h243.81c27.307 0 48.762 21.455 48.762 48.762v126.781c0 27.307-21.455 48.762-48.762 48.762h-243.81c-27.307 0-48.762-21.455-48.762-48.762v-126.781c0-27.307 21.455-48.762 48.762-48.762v0zM520.777 210.651h113.128c27.307 0 46.811 21.455 46.811 46.811v126.781c0 25.356-21.455 46.811-46.811 46.811h-243.81c-40.96 0-62.415-46.811-37.059-78.019l124.83-122.88c9.752-7.802 25.356-19.505 42.91-19.505v0zM403.749 739.23v0c-48.762 0-89.722 40.96-89.722 89.722 0 50.712 40.96 89.722 89.722 89.722 50.712 0 89.722-40.96 89.722-89.722 0-50.712-40.96-89.722-89.722-89.722zM1263.909 739.23c48.762 0 89.722 39.010 89.722 89.722 0 48.762-39.010 89.722-89.722 89.722-48.762 0-89.722-39.010-89.722-89.722 0-48.762 40.96-89.722 89.722-89.722v0zM403.749 633.905c107.276 0 195.048 87.771 195.048 195.048s-87.771 195.048-195.048 195.048c-107.276 0-195.048-87.771-195.048-195.048s87.771-195.048 195.048-195.048v0z"></path>
</symbol>
<symbol id="icon-wagon" viewBox="0 0 2090 1024">
	<path class="path1" d="M1309.876 112.476c-30.462 0-56.238 25.776-56.238 53.895v171.057c0 14.059 4.686 25.776 14.059 35.149 9.373 11.716 25.776 18.746 39.835 18.746h257.757c56.238 0 114.819-21.089 154.654-58.581l60.924-58.581c18.746-18.746 18.746-49.208 4.686-67.954l-30.462-39.835c-35.149-46.865-100.76-53.895-126.535-53.895-91.387 0-255.414 0-318.682 0v0zM438.188 555.35v0c-128.879 0-231.982 105.446-234.325 234.325 0 128.879 105.446 234.325 234.325 234.325s234.325-105.446 234.325-234.325c0-128.879-105.446-234.325-234.325-234.325zM1637.931 681.886v0c-58.581 0-107.789 46.865-107.789 107.789s49.208 107.789 107.789 107.789c60.924 0 107.789-46.865 107.789-107.789s-49.208-107.789-107.789-107.789zM438.188 681.886c58.581 0 107.789 46.865 107.789 107.789 0 58.581-46.865 107.789-107.789 107.789-58.581 0-107.789-46.865-107.789-107.789 0-58.581 49.208-107.789 107.789-107.789v0zM1637.931 555.35c128.879 0 234.325 105.446 234.325 234.325s-105.446 234.325-234.325 234.325c-128.879 0-234.325-105.446-234.325-234.325 2.343-128.879 105.446-234.325 234.325-234.325v0zM1377.831 864.659h-679.542c7.030-23.432 9.373-49.208 9.373-74.984 0-149.968-121.849-269.474-269.474-269.474-149.968 0-269.474 121.849-269.474 269.474 0 25.776 4.686 51.551 9.373 74.984h-37.492c-77.327 0-140.595-63.268-140.595-140.595v-49.208c0-51.551 11.716-98.416 39.835-142.938 46.865-72.641 124.192-119.506 210.892-126.535 42.178-2.343 89.043-9.373 121.849-14.059 67.954-11.716 117.162-42.178 161.684-91.387 128.879-138.252 292.906-269.474 487.396-290.563 74.984-7.030 335.085-11.716 513.172-9.373 42.178 0 82.014 2.343 112.476 2.343 107.789 4.686 180.43 51.551 246.041 133.565l124.192 156.998c63.268 79.67 72.641 135.908 72.641 196.833 0 39.835 0 161.684 0 180.43 0 124.192-91.387 178.087-189.803 192.146 7.030-23.432 9.373-46.865 9.373-70.297 0-149.968-121.849-269.474-269.474-269.474-149.968 0-269.474 121.849-269.474 269.474-2.343 23.432 2.343 46.865 7.030 72.641v0zM1084.924 112.476v0c-70.297 0-149.968 18.746-215.579 42.178-77.327 30.462-131.222 79.67-182.773 142.938-7.030 9.373-9.373 21.089-11.716 30.462-4.686 32.805 21.089 63.268 56.238 63.268h356.174c14.059 0 30.462-7.030 39.835-18.746 9.373-9.373 14.059-21.089 14.059-35.149v-171.057c0-28.119-25.776-53.895-56.238-53.895z"></path>
</symbol>
</defs>
</svg>
