<?xml version="1.0" encoding="utf-8"?>
<!-- Generator: Adobe Illustrator 18.0.0, SVG Export Plug-In . SVG Version: 6.00 Build 0)  -->
<!DOCTYPE svg PUBLIC "-//W3C//DTD SVG 1.1//EN" "http://www.w3.org/Graphics/SVG/1.1/DTD/svg11.dtd">
<svg version="1.1" id="Layer_1" xmlns="http://www.w3.org/2000/svg" xmlns:xlink="http://www.w3.org/1999/xlink" x="0px" y="0px"
	 viewBox="100.6 137.3 349.9 500.7" enable-background="new 100.6 137.3 349.9 500.7" xml:space="preserve">
<g>
	<path fill="#3D99D4" d="M211.6,359.2c-61.1,0-110.9-49.7-110.9-110.9c0-61.1,49.7-110.9,110.9-110.9s110.9,49.7,110.9,110.9
		C322.4,309.5,272.7,359.2,211.6,359.2z M211.6,174.7c-40.5,0-73.6,33-73.6,73.6c0,40.5,33,73.6,73.6,73.6s73.6-33,73.6-73.6
		S252.1,174.7,211.6,174.7z"/>
	<path fill="#3D99D4" d="M211.6,307.8c-32.8,0-59.5-26.7-59.5-59.5c0-32.8,26.7-59.5,59.5-59.5s59.5,26.7,59.5,59.5
		S244.3,307.8,211.6,307.8z M211.6,208c-22.2,0-40.3,18-40.3,40.3s18,40.3,40.3,40.3s40.3-18,40.3-40.3
		C251.9,226.1,233.8,208,211.6,208z"/>
	<path fill="#3D99D4" d="M404.4,208.7c-22.1,0-40,17.9-40,40s17.9,40,40,40s40-17.9,40-40S426.5,208.7,404.4,208.7z"/>
	<path fill="#3D99D4" d="M448,543.1c-4.3-5.9-12.4-7.2-18.3-2.9c-11.4,8.2-24.7,12.6-38.8,12.6c-36.5,0-66.1-29.6-66.1-66.1V473
		c32.8-6.2,57.5-34.9,57.5-69.3c0-7.6-3.5-21.6-26.5-30.1c-11.8-4.3-27.5-6.8-44.1-6.8s-32.3,2.4-44.1,6.8
		c-23.1,8.5-26.5,22.6-26.5,30.1c0,34.4,24.9,63.2,57.5,69.3v13.9c0,36.5-29.6,66.1-66.1,66.1c-14.1,0-27.5-4.3-38.8-12.6
		c-5.9-4.3-14-3-18.3,2.9c-4.3,5.9-3,14,2.9,18.3c15.9,11.5,34.5,17.6,54.3,17.6c33.6,0,63-18,79.1-44.9
		c16.1,26.9,45.5,44.9,79.1,44.9c19.6,0,38.4-6.1,54.3-17.6C451,557.2,452.3,549,448,543.1z"/>
	<path fill="#3D99D4" d="M315.6,638.1c-25.1,0-45.4-10.6-46.3-11.1l6.5-12l6.3-12c0.1,0.1,15.4,8,33.5,8c18.8,0,33-7.6,33.1-7.8
		l13.3,23.7C361.2,627.3,341.7,638.1,315.6,638.1z"/>
</g>
</svg>
