<?xml version="1.0" encoding="utf-8"?>
<!-- Generator: Adobe Illustrator 18.1.1, SVG Export Plug-In . SVG Version: 6.00 Build 0)  -->
<svg version="1.1" id="Layer_1" xmlns="http://www.w3.org/2000/svg" xmlns:xlink="http://www.w3.org/1999/xlink" x="0px" y="0px"
	 viewBox="0 0 275 145" enable-background="new 0 0 275 145" xml:space="preserve">
<g>
	<g>
		<path fill="#9EA7AF" d="M260.7,56.1c0,1.9-1.6,3.6-3.6,3.6h-14.2c-1.9,0-3.6-1.6-3.6-3.6V27.6c0-1.9,1.6-3.6,3.6-3.6h14.2
			c1.9,0,3.6,1.6,3.6,3.6V56.1z M258,32.1c0-0.5-0.4-0.9-0.9-0.9h-14.2c-0.5,0-0.9,0.4-0.9,0.9v19.6c0,0.5,0.4,0.9,0.9,0.9h14.2
			c0.5,0,0.9-0.4,0.9-0.9V32.1z M252.3,27.6h-4.5c-0.3,0-0.4,0.2-0.4,0.4s0.2,0.4,0.4,0.4h4.5c0.3,0,0.4-0.2,0.4-0.4
			S252.5,27.6,252.3,27.6z M250,53.9c-1.2,0-2.2,1-2.2,2.2c0,1.2,1,2.2,2.2,2.2c1.2,0,2.2-1,2.2-2.2C252.3,54.9,251.3,53.9,250,53.9
			z"/>
	</g>
	<g>
		<path fill="#99B546" d="M255.8,44.1c0,0.1-0.1,0.2-0.2,0.2h-0.5V45c0,0.6-0.5,1.1-1.1,1.1c-0.6,0-1.1-0.5-1.1-1.1v-0.7h-5.7V45
			c0,0.6-0.5,1.1-1.1,1.1c-0.6,0-1.1-0.5-1.1-1.1v-0.7h-0.5c-0.1,0-0.2-0.1-0.2-0.2v-2.2c0-0.7,0.6-1.3,1.3-1.3h0.2l0.6-2.4
			c0.2-0.7,0.9-1.2,1.6-1.2h4.3c0.7,0,1.4,0.5,1.6,1.2l0.6,2.4h0.2c0.7,0,1.3,0.6,1.3,1.3V44.1z M246.1,41.5c-0.5,0-0.9,0.4-0.9,0.9
			c0,0.5,0.4,0.9,0.9,0.9s0.9-0.4,0.9-0.9C247,41.9,246.6,41.5,246.1,41.5z M252.9,40.6l-0.5-2c0-0.1-0.1-0.2-0.2-0.2h-4.3
			c-0.1,0-0.2,0.1-0.2,0.2l-0.5,2H252.9z M254,41.5c-0.5,0-0.9,0.4-0.9,0.9c0,0.5,0.4,0.9,0.9,0.9s0.9-0.4,0.9-0.9
			C254.9,41.9,254.5,41.5,254,41.5z"/>
	</g>
</g>
<g>
	<g>
		<path fill="#99B546" d="M238,108.9c0,0.3-0.2,0.6-0.6,0.6h-1.7v2.3c0,1.9-1.5,3.4-3.4,3.4c-1.9,0-3.4-1.5-3.4-3.4v-2.3h-18.1v2.3
			c0,1.9-1.5,3.4-3.4,3.4c-1.9,0-3.4-1.5-3.4-3.4v-2.3h-1.7c-0.3,0-0.6-0.2-0.6-0.6v-6.8c0-2.2,1.8-4,4-4h0.5l1.9-7.4
			c0.5-2.2,2.7-3.9,5-3.9h13.6c2.3,0,4.5,1.7,5,3.9l1.9,7.4h0.5c2.2,0,4,1.8,4,4V108.9z M207.3,101c-1.6,0-2.8,1.3-2.8,2.8
			c0,1.6,1.3,2.8,2.8,2.8s2.8-1.3,2.8-2.8C210.2,102.2,208.9,101,207.3,101z M228.8,98.1l-1.6-6.3c-0.1-0.2-0.4-0.5-0.6-0.5H213
			c-0.2,0-0.6,0.3-0.6,0.5l-1.6,6.3H228.8z M232.3,101c-1.6,0-2.8,1.3-2.8,2.8c0,1.6,1.3,2.8,2.8,2.8c1.6,0,2.8-1.3,2.8-2.8
			C235.1,102.2,233.9,101,232.3,101z"/>
	</g>
	<g>
		<path fill="#9EA7AF" d="M275,134v5.5c0,3-4.1,5.5-9.2,5.5h-92c-5.1,0-9.2-2.5-9.2-5.5V134h9.2h92H275z M179.4,121.1V80.6
			c0-5.1,4.1-9.2,9.2-9.2h62.5c5.1,0,9.2,4.1,9.2,9.2v40.5c0,5.1-4.1,9.2-9.2,9.2h-62.5C183.5,130.3,179.4,126.1,179.4,121.1z
			 M186.7,121.1c0,1,0.9,1.8,1.8,1.8h62.5c1,0,1.8-0.9,1.8-1.8V80.6c0-1-0.9-1.8-1.8-1.8h-62.5c-1,0-1.8,0.9-1.8,1.8V121.1z
			 M225.3,138.6c0-0.5-0.4-0.9-0.9-0.9h-9.2c-0.5,0-0.9,0.4-0.9,0.9c0,0.5,0.4,0.9,0.9,0.9h9.2C224.9,139.5,225.3,139.1,225.3,138.6
			z"/>
	</g>
</g>
<g>
	<g>
		<path fill="#99B546" d="M120.8,66.8c0,0.7-0.5,1.2-1.2,1.2h-3.5v4.6c0,3.8-3.1,7-7,7s-7-3.1-7-7V68H65.1v4.6c0,3.8-3.1,7-7,7
			s-7-3.1-7-7V68h-3.5c-0.7,0-1.2-0.5-1.2-1.2V52.9c0-4.5,3.6-8.1,8.1-8.1h1l3.8-15.2c1.1-4.6,5.6-8,10.3-8h27.9
			c4.7,0,9.2,3.4,10.3,8l3.8,15.2h1c4.5,0,8.1,3.6,8.1,8.1V66.8z M58.1,50.6c-3.2,0-5.8,2.6-5.8,5.8s2.6,5.8,5.8,5.8
			c3.2,0,5.8-2.6,5.8-5.8S61.3,50.6,58.1,50.6z M102.1,44.8l-3.2-13c-0.1-0.4-0.8-1-1.3-1H69.7c-0.4,0-1.2,0.6-1.3,1l-3.2,13H102.1z
			 M109.2,50.6c-3.2,0-5.8,2.6-5.8,5.8s2.6,5.8,5.8,5.8s5.8-2.6,5.8-5.8S112.4,50.6,109.2,50.6z"/>
	</g>
	<g>
		<path fill="#9EA7AF" d="M167.3,108.8c0,7.7-6.3,13.9-13.9,13.9H106c0,7.4,5.6,13.7,5.6,16.7S109,145,106,145H61.3
			c-3,0-5.6-2.5-5.6-5.6c0-3.2,5.6-9.1,5.6-16.7H13.9c-7.7,0-13.9-6.3-13.9-13.9V13.9C0,6.3,6.3,0,13.9,0h139.4
			c7.7,0,13.9,6.3,13.9,13.9V108.8z M156.2,13.9c0-1.5-1.3-2.8-2.8-2.8H13.9c-1.5,0-2.8,1.3-2.8,2.8v72.5c0,1.5,1.3,2.8,2.8,2.8
			h139.4c1.5,0,2.8-1.3,2.8-2.8V13.9z"/>
	</g>
</g>
<g>
	<g>
		<path fill="#99B546" d="M217.3,33.3c0,0.2-0.2,0.4-0.4,0.4h-1.2v1.6c0,1.4-1.1,2.5-2.5,2.5c-1.4,0-2.5-1.1-2.5-2.5v-1.6h-13.2v1.6
			c0,1.4-1.1,2.5-2.5,2.5c-1.4,0-2.5-1.1-2.5-2.5v-1.6h-1.2c-0.2,0-0.4-0.2-0.4-0.4v-4.9c0-1.6,1.3-2.9,2.9-2.9h0.4l1.4-5.4
			c0.4-1.6,2-2.8,3.6-2.8h9.9c1.7,0,3.2,1.2,3.6,2.8l1.4,5.4h0.4c1.6,0,2.9,1.3,2.9,2.9V33.3z M195,27.5c-1.1,0-2.1,0.9-2.1,2.1
			s0.9,2.1,2.1,2.1c1.1,0,2.1-0.9,2.1-2.1S196.2,27.5,195,27.5z M210.6,25.5l-1.1-4.6c0-0.1-0.3-0.3-0.5-0.3h-9.9
			c-0.2,0-0.4,0.2-0.5,0.3l-1.1,4.6H210.6z M213.2,27.5c-1.1,0-2.1,0.9-2.1,2.1s0.9,2.1,2.1,2.1c1.1,0,2.1-0.9,2.1-2.1
			S214.3,27.5,213.2,27.5z"/>
	</g>
	<g>
		<path fill="#9EA7AF" d="M228.5,52.9c0,3.7-3.1,6.8-6.8,6.8h-35.3c-3.7,0-6.8-3.1-6.8-6.8V6.8c0-3.7,3.1-6.8,6.8-6.8h35.3
			c3.7,0,6.8,3.1,6.8,6.8V52.9z M223.1,6.8c0-0.7-0.6-1.4-1.4-1.4h-35.3c-0.7,0-1.4,0.6-1.4,1.4v40.7c0,0.7,0.6,1.4,1.4,1.4h35.3
			c0.7,0,1.4-0.6,1.4-1.4V6.8z M204.1,51.6c-1.5,0-2.7,1.2-2.7,2.7c0,1.5,1.2,2.7,2.7,2.7s2.7-1.2,2.7-2.7
			C206.8,52.8,205.6,51.6,204.1,51.6z"/>
	</g>
</g>
</svg>
